<svg xmlns="http://www.w3.org/2000/svg" width="980" height="620" viewBox="0 0 980 620" role="img" aria-labelledby="title desc">
  <title id="title">AI shopping assistant screenshot</title>
  <desc id="desc">Stylized screenshot of the AI shopping assistant using Ollama and JSON catalog fallback to return product recommendations.</desc>
  <defs>
    <style>
      .screen { fill: #f6f8fb; stroke: #cbd5e1; stroke-width: 2; }
      .side { fill: #2b1530; }
      .chat { fill: #ffffff; stroke: #d8e0ea; }
      .bot { fill: #ffffff; stroke: #d8e0ea; }
      .user { fill: #0b66d7; }
      .chip { fill: rgba(255,255,255,0.14); stroke: rgba(255,255,255,0.32); }
      .product { fill: #f8fafc; stroke: #d8e0ea; }
      .title { font: 700 30px Arial, sans-serif; fill: #ffffff; }
      .label { font: 700 16px Arial, sans-serif; fill: #172033; }
      .small { font: 13px Arial, sans-serif; fill: #64748b; }
      .white { fill: #ffffff; font: 13px Arial, sans-serif; }
      .trace { fill: #64748b; font: 11px Arial, sans-serif; }
    </style>
  </defs>
  <rect x="18" y="18" width="944" height="584" rx="28" class="screen"/>
  <rect x="48" y="54" width="282" height="512" rx="22" class="side"/>
  <text x="78" y="112" class="title">AI Shopping Assistant</text>
  <text x="78" y="146" class="white">Ollama or Gemini model backend</text>
  <text x="78" y="170" class="white">JSON catalog fallback for local demos</text>
  <rect x="78" y="224" width="205" height="42" rx="12" class="chip"/>
  <text x="98" y="250" class="white">Minimalist desk setup</text>
  <rect x="78" y="286" width="205" height="42" rx="12" class="chip"/>
  <text x="98" y="312" class="white">Gift for a coffee lover</text>
  <rect x="78" y="348" width="205" height="42" rx="12" class="chip"/>
  <text x="98" y="374" class="white">Cozy small apartment</text>
  <rect x="78" y="472" width="188" height="46" rx="12" fill="#22c55e"/>
  <text x="102" y="501" class="white">healthz ready</text>

  <rect x="366" y="54" width="566" height="512" rx="22" class="chat"/>
  <rect x="394" y="88" width="286" height="64" rx="16" class="bot"/>
  <text x="414" y="116" class="label">Hi, I can recommend products.</text>
  <text x="414" y="138" class="small">Tell me a room style, budget, or use case.</text>
  <rect x="585" y="182" width="310" height="68" rx="16" class="user"/>
  <text x="610" y="212" class="white">Recommend warm lighting for a</text>
  <text x="610" y="235" class="white">small reading corner.</text>
  <rect x="394" y="282" width="390" height="106" rx="16" class="bot"/>
  <text x="414" y="312" class="label">Warm minimalist style detected.</text>
  <text x="414" y="338" class="small">Try a focused desk lamp and soft neutral accessories.</text>
  <text x="414" y="364" class="trace">trace 4f1f8b2a - provider ollama - backend json</text>

  <rect x="394" y="414" width="154" height="96" rx="14" class="product"/>
  <rect x="412" y="432" width="42" height="42" rx="10" fill="#eef7ff"/>
  <text x="468" y="452" class="label">Desk lamp</text>
  <text x="468" y="474" class="small">[2ZYFJ3GM2N]</text>
  <rect x="574" y="414" width="154" height="96" rx="14" class="product"/>
  <rect x="592" y="432" width="42" height="42" rx="10" fill="#fff6e6"/>
  <text x="648" y="452" class="label">Throw blanket</text>
  <text x="648" y="474" class="small">[OLJCESPC7Z]</text>
  <rect x="754" y="414" width="154" height="96" rx="14" class="product"/>
  <rect x="772" y="432" width="42" height="42" rx="10" fill="#edfdf5"/>
  <text x="828" y="452" class="label">Coffee kit</text>
  <text x="828" y="474" class="small">[LS4PSXUNUM]</text>

  <rect x="394" y="526" width="420" height="28" rx="14" fill="#f1f5f9"/>
  <text x="414" y="545" class="small">Ask for bundles, price range, style, image URL or upload.</text>
  <rect x="830" y="522" width="78" height="36" rx="12" fill="#0b66d7"/>
  <text x="856" y="545" class="white">Send</text>
</svg>
